<?xml version="1.0" standalone="no"?>
<!DOCTYPE svg PUBLIC "-//W3C//DTD SVG 20010904//EN"
 "http://www.w3.org/TR/2001/REC-SVG-20010904/DTD/svg10.dtd">
<svg version="1.0" xmlns="http://www.w3.org/2000/svg"
 width="512px" height="512px" viewBox="0 0 512.000000 512.000000"
 preserveAspectRatio="xMidYMid meet">
<metadata>
Created by potrace 1.16, written by Peter Selinger 2001-2019
</metadata>
<g transform="translate(0.000000,512.000000) scale(0.100000,-0.100000)"
fill="#000000" stroke="none">
<path d="M2485 5110 c-28 -11 -72 -60 -84 -93 -7 -17 -11 -127 -11 -283 0
-195 -3 -255 -12 -258 -7 -2 -55 -11 -106 -20 -447 -80 -858 -393 -1059 -807
-54 -110 -98 -237 -124 -357 -20 -88 -22 -140 -29 -587 -7 -445 -10 -499 -29
-586 -44 -204 -125 -390 -234 -546 -34 -48 -119 -145 -188 -214 -163 -163
-183 -201 -184 -344 0 -88 3 -107 27 -157 35 -76 95 -138 170 -179 l63 -34
540 -3 540 -3 19 -67 c79 -276 313 -494 599 -557 120 -26 315 -18 422 19 127
43 220 101 316 196 99 99 155 188 198 316 l30 89 538 5 538 5 55 27 c71 35
143 107 178 178 24 50 27 66 27 165 0 102 -2 114 -29 165 -18 36 -68 94 -142
167 -251 248 -385 497 -441 822 -11 62 -17 219 -23 566 -8 526 -9 533 -76 735
-71 214 -192 407 -359 575 -228 227 -507 371 -815 419 l-75 12 -5 269 c-6 300
-8 314 -73 354 -36 22 -122 28 -162 11z m283 -976 c227 -40 442 -154 612 -324
130 -131 218 -269 279 -444 58 -163 63 -216 71 -741 9 -527 12 -564 80 -775
40 -124 154 -354 224 -454 75 -108 184 -233 262 -301 70 -62 81 -92 42 -119
-20 -14 -205 -16 -1778 -16 -1391 0 -1760 3 -1780 13 -50 25 -38 47 92 178
150 151 236 270 327 454 105 210 159 395 181 624 5 57 10 273 10 481 0 416 6
481 61 644 107 320 351 582 663 711 206 85 431 109 654 69z m232 -3499 c0 -24
-63 -120 -111 -167 -143 -144 -353 -180 -535 -93 -91 44 -172 121 -214 205
l-30 60 445 0 c245 0 445 -2 445 -5z"/>
<path d="M1038 4878 c-27 -7 -60 -33 -120 -96 -422 -438 -684 -1053 -705
-1653 -3 -92 -3 -178 1 -192 9 -39 62 -94 102 -107 49 -16 117 -4 154 27 53
44 61 72 70 242 31 556 236 1040 614 1449 86 93 96 112 96 181 0 106 -103 178
-212 149z"/>
<path d="M3985 4881 c-98 -24 -151 -130 -111 -224 7 -18 51 -72 96 -122 377
-409 573 -887 609 -1483 6 -108 11 -137 27 -160 25 -34 98 -72 140 -72 51 0
115 40 142 91 23 42 24 49 18 184 -29 632 -261 1193 -690 1668 -39 43 -84 87
-101 96 -37 23 -90 31 -130 22z"/>
</g>
</svg>
