<?xml version="1.0" standalone="no"?>
<!DOCTYPE svg PUBLIC "-//W3C//DTD SVG 20010904//EN"
 "http://www.w3.org/TR/2001/REC-SVG-20010904/DTD/svg10.dtd">
<svg version="1.0" xmlns="http://www.w3.org/2000/svg"
 width="512.000000pt" height="512.000000pt" viewBox="0 0 512.000000 512.000000"
 preserveAspectRatio="xMidYMid meet">
<metadata>
Created by potrace 1.16, written by Peter Selinger 2001-2019
</metadata>
<g transform="translate(0.000000,512.000000) scale(0.100000,-0.100000)"
fill="#000000" stroke="none">
<path d="M2255 5108 c-461 -52 -936 -253 -1310 -553 -119 -96 -342 -326 -432
-446 -210 -280 -361 -598 -443 -931 -57 -232 -65 -309 -65 -613 0 -294 6 -357
52 -565 179 -813 771 -1513 1540 -1819 322 -128 605 -181 963 -181 422 0 785
84 1144 264 272 137 480 290 696 512 393 405 636 910 705 1464 20 163 20 477
0 640 -57 457 -245 907 -532 1273 -84 107 -355 372 -464 454 -362 271 -787
443 -1229 498 -137 17 -489 19 -625 3z m395 -987 c48 -35 62 -75 69 -189 6
-101 7 -107 31 -118 229 -109 223 -105 310 -193 97 -97 154 -195 189 -321 28
-100 28 -213 1 -258 -59 -97 -204 -96 -261 3 -10 17 -23 68 -28 115 -14 105
-47 177 -115 246 -28 27 -78 63 -111 80 -56 27 -68 29 -175 29 -107 0 -119 -2
-175 -29 -77 -38 -153 -114 -191 -191 -27 -56 -29 -68 -29 -175 0 -107 2 -119
29 -175 38 -77 115 -154 190 -189 47 -22 85 -31 192 -41 224 -23 371 -90 501
-229 76 -81 124 -160 159 -261 39 -114 46 -287 14 -401 -35 -129 -92 -227
-190 -325 -87 -88 -80 -84 -310 -193 -24 -11 -25 -17 -32 -119 -5 -78 -12
-116 -25 -140 -61 -104 -205 -103 -266 1 -15 25 -21 61 -26 140 -6 101 -7 107
-31 118 -229 109 -223 105 -310 193 -97 97 -154 195 -189 321 -28 100 -28 213
-1 258 59 97 204 96 261 -3 10 -17 22 -67 28 -113 19 -149 99 -265 226 -328
56 -27 68 -29 175 -29 107 0 119 2 175 29 77 38 153 114 191 191 27 56 29 68
29 175 0 107 -2 119 -29 175 -38 77 -115 154 -190 189 -47 22 -85 31 -192 41
-224 23 -371 90 -501 229 -76 81 -124 160 -159 261 -39 114 -46 287 -14 401
35 129 92 227 190 325 87 88 80 84 310 193 24 11 25 17 32 119 4 77 12 116 25
139 48 83 148 105 223 49z"/>
</g>
</svg>
