<?xml version="1.0" standalone="no"?>
<!DOCTYPE svg PUBLIC "-//W3C//DTD SVG 20010904//EN"
 "http://www.w3.org/TR/2001/REC-SVG-20010904/DTD/svg10.dtd">
<svg version="1.0" xmlns="http://www.w3.org/2000/svg"
 width="512.000000pt" height="512.000000pt" viewBox="0 0 512.000000 512.000000"
 preserveAspectRatio="xMidYMid meet">
<metadata>
Created by potrace 1.16, written by Peter Selinger 2001-2019
</metadata>
<g transform="translate(0.000000,512.000000) scale(0.100000,-0.100000)"
fill="#000000" stroke="none">
<path d="M2580 4785 c-864 -126 -1554 -701 -1830 -1524 -31 -93 -90 -339 -90
-375 0 -3 -150 -6 -332 -6 l-333 0 483 -482 482 -483 482 483 483 482 -303 0
-304 0 7 33 c19 90 84 263 136 366 239 468 692 790 1208 861 116 16 342 14
453 -4 660 -108 1171 -595 1320 -1258 20 -90 23 -130 23 -318 0 -188 -3 -228
-23 -318 -151 -674 -678 -1166 -1352 -1262 -124 -18 -340 -13 -474 10 -369 63
-715 260 -953 544 -42 50 -82 91 -88 90 -16 -2 -515 -364 -515 -374 0 -21 166
-214 265 -308 360 -344 812 -556 1304 -613 140 -16 495 -7 621 16 373 67 692
205 989 428 123 92 336 305 428 428 224 299 359 612 429 994 27 144 27 586 0
730 -70 381 -205 694 -429 994 -92 123 -305 336 -428 428 -298 223 -614 360
-989 428 -129 24 -535 30 -670 10z"/>
<path d="M2560 2866 l0 -655 476 -285 c261 -158 477 -286 479 -286 9 0 335
553 330 559 -3 3 -149 92 -323 197 l-317 190 -3 467 -2 467 -320 0 -320 0 0
-654z"/>
</g>
</svg>
