<?xml version="1.0" standalone="no"?>
<!DOCTYPE svg PUBLIC "-//W3C//DTD SVG 20010904//EN"
 "http://www.w3.org/TR/2001/REC-SVG-20010904/DTD/svg10.dtd">
<svg version="1.0" xmlns="http://www.w3.org/2000/svg"
 width="512.000000pt" height="512.000000pt" viewBox="0 0 512.000000 512.000000"
 preserveAspectRatio="xMidYMid meet">

<g transform="translate(0.000000,512.000000) scale(0.100000,-0.100000)"
fill="#000000" stroke="none">
<path d="M2315 5109 c-597 -61 -1141 -318 -1563 -739 -1002 -1000 -1002 -2620
0 -3620 406 -405 901 -648 1493 -732 119 -17 512 -16 635 1 580 80 1087 329
1490 733 404 405 648 902 732 1493 17 118 17 512 0 630 -84 592 -328 1089
-733 1494 -396 396 -891 644 -1454 727 -122 18 -477 26 -600 13z m570 -414
c606 -94 1138 -434 1475 -943 400 -602 470 -1375 187 -2036 -299 -697 -917
-1175 -1672 -1293 -149 -24 -487 -23 -634 0 -952 154 -1670 872 -1818 1822
-24 151 -24 479 0 630 96 613 429 1140 936 1479 302 202 634 319 1026 360 81
8 403 -4 500 -19z"/>
<path d="M2471 4116 c-115 -41 -185 -180 -151 -301 15 -55 78 -128 134 -157
56 -30 155 -30 212 -1 92 48 151 151 141 247 -14 135 -117 227 -253 225 -27 0
-64 -6 -83 -13z"/>
<path d="M2085 3136 c-44 -19 -103 -89 -111 -131 -17 -95 22 -187 99 -227 35
-19 62 -23 165 -26 l122 -4 0 -584 0 -584 -115 0 c-82 0 -127 -5 -153 -15
-163 -69 -163 -301 0 -370 56 -23 880 -23 936 0 133 56 165 234 60 332 -44 42
-90 53 -213 53 l-115 0 0 705 c0 614 -2 710 -15 743 -20 47 -50 79 -97 103
-34 17 -61 19 -285 19 -182 -1 -256 -4 -278 -14z"/>
</g>
</svg>
