<?xml version="1.0" standalone="no"?>
<!DOCTYPE svg PUBLIC "-//W3C//DTD SVG 20010904//EN"
 "http://www.w3.org/TR/2001/REC-SVG-20010904/DTD/svg10.dtd">
<svg version="1.0" xmlns="http://www.w3.org/2000/svg"
 width="512.000000pt" height="512.000000pt" viewBox="0 0 512.000000 512.000000"
 preserveAspectRatio="xMidYMid meet">

<g transform="translate(0.000000,512.000000) scale(0.100000,-0.100000)"
fill="#000000" stroke="none">
<path d="M1260 5109 c-308 -39 -589 -173 -812 -388 -218 -209 -354 -453 -420
-754 -20 -91 -22 -128 -22 -342 2 -260 19 -430 70 -680 270 -1336 1275 -2423
2589 -2800 331 -95 633 -138 970 -139 201 0 243 2 332 22 353 77 658 271 868
551 161 214 263 494 281 767 8 114 -2 157 -44 196 -28 27 -1635 675 -1697 685
-40 6 -95 -17 -125 -53 -12 -16 -87 -189 -165 -384 l-141 -355 -66 2 c-36 1
-109 11 -162 22 -652 136 -1156 658 -1267 1310 -11 67 -19 134 -17 148 3 26
22 35 363 170 396 158 416 170 430 252 6 38 -18 103 -325 871 -182 456 -341
841 -353 856 -41 52 -121 64 -287 43z m350 -979 c150 -375 271 -682 269 -684
-2 -1 -155 -63 -339 -136 -358 -143 -394 -164 -409 -230 -12 -58 6 -287 33
-417 164 -795 802 -1400 1601 -1517 87 -13 218 -20 309 -17 19 1 41 14 65 39
32 31 58 89 171 372 73 184 135 337 136 339 2 2 310 -119 685 -269 l682 -273
-6 -61 c-13 -137 -90 -337 -182 -476 -175 -263 -475 -447 -802 -491 -213 -29
-632 11 -954 91 -476 118 -915 335 -1304 646 -141 113 -406 378 -519 519 -434
543 -681 1172 -737 1876 -13 169 -7 375 15 474 60 273 210 511 424 672 77 58
209 132 282 159 80 28 224 63 266 64 l42 0 272 -680z"/>
</g>
</svg>
